<?xml version="1.0" standalone="no"?>
<!DOCTYPE svg PUBLIC "-//W3C//DTD SVG 20010904//EN"
 "http://www.w3.org/TR/2001/REC-SVG-20010904/DTD/svg10.dtd">
<svg version="1.0" xmlns="http://www.w3.org/2000/svg"
 width="1024.000000pt" height="1024.000000pt" viewBox="0 0 1024.000000 1024.000000"
 preserveAspectRatio="xMidYMid meet">

<g transform="translate(0.000000,1024.000000) scale(0.100000,-0.100000)"
fill="#000000" stroke="none">
<path d="M1675 6620 c-106 -27 -191 -77 -280 -164 -163 -160 -168 -349 -10
-441 16 -10 15 -15 -14 -70 -57 -110 -64 -179 -58 -630 4 -382 13 -516 48
-765 23 -164 65 -244 173 -324 39 -29 82 -59 96 -66 39 -21 121 -40 171 -40
39 0 56 -7 105 -43 68 -50 111 -67 168 -67 54 0 110 28 114 57 2 13 17 32 33
44 l30 21 49 -21 c58 -25 148 -28 208 -7 l40 14 7 -36 c8 -43 63 -102 97 -103
122 -6 200 54 239 182 20 65 21 86 16 282 -3 143 -12 259 -26 356 -12 79 -20
150 -17 158 9 22 381 15 679 -13 41 -4 75 -13 84 -22 13 -14 15 -56 12 -336
l-4 -321 24 -48 c15 -28 43 -61 70 -80 24 -18 60 -48 80 -68 52 -53 70 -59
171 -59 76 0 96 -3 117 -20 42 -33 83 -34 200 -6 238 57 331 67 568 65 197 -3
224 -1 255 15 30 17 50 18 161 12 120 -6 128 -5 160 17 31 20 38 21 79 10 25
-6 60 -12 79 -12 22 -1 56 -15 96 -41 92 -60 170 -76 330 -70 122 5 134 8 197
39 86 43 227 185 277 280 l34 65 12 -40 c27 -92 124 -203 192 -220 27 -7 28
-20 8 -94 -8 -30 -15 -57 -15 -60 0 -2 33 27 73 66 105 104 150 114 181 40 21
-49 50 -69 109 -74 46 -4 57 -1 85 23 30 25 82 116 82 144 0 6 18 44 41 84 23
40 56 106 75 147 18 41 34 71 34 66 0 -11 -84 -300 -99 -338 -12 -32 -26 -36
-40 -10 -9 14 -10 15 -11 1 0 -17 30 -49 46 -49 14 0 79 107 128 211 73 156
152 404 187 587 9 49 14 60 25 51 17 -14 195 -373 234 -472 65 -167 119 -236
213 -272 46 -17 159 -18 198 -1 13 6 23 -3 40 -35 49 -89 132 -112 228 -64 53
27 88 63 97 102 6 24 7 24 21 3 18 -26 55 -26 78 0 18 19 19 43 18 333 0 322
-10 498 -44 817 -31 290 -119 854 -136 870 -3 3 -3 -29 1 -70 20 -240 33 -550
21 -538 -3 3 -16 110 -30 239 -28 258 -37 310 -65 349 -10 14 -21 44 -25 65
-35 209 -48 261 -68 283 -30 33 -70 52 -107 52 -17 0 -54 12 -83 26 -169 86
-390 -11 -444 -195 -15 -53 -15 -70 6 -300 12 -134 20 -245 18 -247 -5 -5
-153 222 -228 351 -76 130 -171 232 -273 293 l-69 41 -36 -29 c-23 -18 -53
-30 -85 -34 -62 -8 -126 -45 -167 -96 l-32 -40 -23 57 c-26 64 -81 125 -139
156 -51 26 -151 29 -189 4 -14 -9 -44 -17 -66 -17 -108 0 -229 -118 -230 -225
0 -13 -11 -1 -30 33 -22 38 -44 60 -78 79 -27 15 -59 42 -73 60 -29 40 -85 80
-136 99 -74 26 -225 13 -354 -31 -41 -14 -94 -25 -117 -25 -63 0 -99 -25 -154
-110 -76 -116 -243 -461 -283 -585 -75 -235 -100 -427 -93 -706 l5 -196 -206
-6 c-113 -4 -216 -9 -228 -13 -27 -8 -26 -20 -52 356 -41 574 -61 716 -117
828 -20 41 -38 71 -40 69 -3 -3 5 -33 16 -68 16 -48 23 -101 29 -223 11 -235
7 -229 -39 58 -17 109 -35 206 -40 215 -5 9 -16 51 -24 95 -16 83 -60 189
-102 243 -33 44 -73 63 -131 63 -26 0 -72 9 -101 20 -82 31 -191 28 -267 -8
-58 -28 -116 -81 -137 -127 -8 -19 -16 -21 -56 -19 -26 2 -114 8 -197 14 -179
13 -337 32 -539 66 -82 14 -156 22 -164 19 -20 -7 -328 70 -377 95 -45 23
-141 27 -194 9 -25 -9 -44 -8 -90 5 -59 16 -183 20 -236 6z m243 -156 l52 -26
33 20 c54 33 92 36 141 13 62 -31 350 -102 426 -106 36 -1 125 -12 198 -24
183 -29 374 -50 573 -61 98 -6 183 -15 202 -23 17 -8 49 -33 70 -56 l37 -41
-6 82 c-8 100 8 147 58 177 57 36 109 37 205 5 47 -15 91 -33 99 -39 9 -6 27
-85 50 -225 20 -118 37 -217 40 -219 6 -7 4 73 -6 209 -8 110 -20 173 -45 233
-4 9 -3 17 1 17 18 0 65 -101 83 -181 31 -133 78 -652 106 -1181 8 -158 18
-294 21 -303 5 -12 14 -15 33 -10 164 43 527 72 675 56 92 -11 127 -24 168
-66 l27 -27 -10 34 c-5 18 -18 83 -29 144 -53 306 -30 628 67 926 38 117 204
456 269 551 42 61 41 57 -8 -44 -20 -42 -40 -88 -44 -103 -11 -46 13 -28 49
37 48 85 127 158 202 186 67 26 202 41 254 30 38 -9 90 -55 117 -105 14 -25
25 -34 45 -34 35 0 49 -18 107 -135 81 -164 115 -287 159 -565 13 -86 18 -171
18 -340 -1 -470 -76 -717 -277 -906 -111 -105 -180 -134 -338 -140 -178 -7
-279 25 -381 123 -60 57 -139 171 -160 231 -6 18 -15 29 -20 26 -16 -9 -10
-40 11 -59 11 -10 25 -35 32 -56 9 -32 8 -46 -7 -84 -30 -79 -32 -80 -335 -81
-332 -1 -554 -23 -795 -80 -197 -46 -239 -43 -292 20 l-26 31 7 270 c6 258 5
282 -23 530 -16 143 -42 393 -57 556 l-28 297 -30 -51 c-57 -92 -175 -128
-291 -89 -40 14 -134 27 -285 42 -260 24 -377 41 -533 74 -61 14 -114 22 -117
20 -2 -3 13 -74 34 -159 l39 -154 291 6 c313 6 582 -7 674 -33 166 -47 213
-255 85 -376 -57 -54 -88 -60 -225 -42 -144 19 -728 32 -728 17 0 -6 9 -68 20
-139 26 -170 43 -430 35 -524 -13 -151 -53 -241 -129 -285 -80 -46 -150 -41
-199 13 -26 28 -47 115 -47 192 0 36 -4 79 -9 96 -5 17 -24 169 -42 339 l-34
308 -41 17 c-50 22 -100 71 -119 117 -34 80 -4 194 61 236 21 14 34 30 34 44
0 30 -55 292 -80 378 -11 38 -20 87 -20 108 0 22 -9 51 -22 71 l-22 33 -55
-24 c-31 -13 -67 -30 -81 -38 -66 -38 -101 -49 -169 -53 -138 -8 -261 46 -261
115 0 71 97 182 212 243 105 56 209 61 306 14z m6255 2 c40 -16 81 -64 96
-108 9 -27 61 -476 61 -524 0 -8 4 -14 9 -14 4 0 7 30 5 68 -2 37 -9 157 -14
267 -6 110 -14 215 -17 234 -4 21 -2 32 4 28 6 -4 13 -23 16 -44 3 -21 19
-118 36 -216 49 -289 85 -575 113 -897 18 -210 17 -832 -1 -853 -20 -25 -67
-21 -85 5 -15 21 -16 21 -16 3 0 -53 -82 -121 -168 -140 -35 -7 -106 20 -134
51 -10 11 -44 83 -76 159 -68 161 -168 364 -254 515 -64 111 -246 389 -296
453 l-30 38 -11 -53 c-5 -29 -19 -105 -31 -168 -30 -163 -92 -416 -134 -543
-41 -124 -138 -332 -186 -396 l-33 -45 -23 28 c-13 15 -24 35 -24 44 0 9 -13
-8 -28 -38 -34 -69 -70 -95 -127 -94 -57 1 -86 21 -123 86 -35 63 -62 214
-112 628 -17 140 -62 491 -100 780 -39 289 -70 544 -70 567 0 32 7 50 28 73
53 60 135 37 245 -69 l49 -46 -7 45 c-8 53 -26 83 -60 106 -24 16 -27 15 -45
-1 -18 -16 -20 -16 -20 -2 0 23 37 40 73 33 77 -16 109 -88 185 -416 33 -142
46 -227 67 -455 28 -290 56 -510 68 -522 12 -11 16 0 33 97 25 146 30 514 10
732 -28 304 -21 387 37 441 29 26 36 29 86 25 47 -4 58 -2 72 16 17 20 17 20
65 -17 66 -52 122 -121 180 -225 26 -48 87 -145 135 -217 138 -208 211 -330
327 -550 l73 -140 -6 65 c-3 36 -15 157 -26 270 -76 781 -77 805 -55 848 18
34 59 73 94 88 37 17 106 17 145 0z m-6343 -436 c15 -16 35 -30 44 -30 9 0 19
-6 21 -12 3 -7 7 -197 9 -423 4 -287 9 -429 19 -475 12 -59 13 -42 10 200 -5
326 6 561 26 568 11 4 12 -16 6 -114 -14 -249 25 -934 73 -1285 5 -30 6 -61 4
-67 -4 -14 -38 -16 -47 -3 -3 5 -16 -1 -28 -13 -13 -13 -27 -25 -33 -27 -5 -2
-16 -17 -24 -34 -20 -39 -53 -55 -117 -55 -63 0 -89 11 -171 70 -101 72 -116
114 -146 400 -34 322 -47 799 -26 993 16 156 69 235 201 301 93 46 140 48 179
6z m3225 -1783 c13 -10 16 -21 12 -39 l-7 -26 -237 5 c-244 6 -498 -6 -697
-33 -128 -16 -200 -18 -191 -4 14 22 162 48 435 75 138 14 311 24 616 33 29 1
58 -4 69 -11z"/>
<path d="M2200 6401 c0 -23 40 -49 91 -60 47 -10 261 -32 299 -30 8 0 -50 15
-130 33 -140 32 -216 51 -246 63 -8 3 -14 0 -14 -6z"/>
<path d="M3780 6383 c-80 -23 -86 -46 -66 -240 9 -87 23 -255 31 -373 9 -118
19 -267 24 -330 l8 -115 1 110 c1 61 -3 245 -8 410 -10 293 -8 349 20 495 9
51 10 49 -10 43z"/>
<path d="M1451 6259 c-29 -50 -22 -83 22 -109 62 -39 188 -55 247 -32 20 8 8
10 -53 11 -124 0 -190 45 -189 130 0 23 0 41 -2 41 -1 0 -13 -18 -25 -41z"/>
<path d="M5751 6068 c-26 -61 -78 -258 -95 -359 -41 -235 -45 -539 -11 -791 9
-75 12 -125 6 -140 -12 -30 -16 -18 -35 97 -68 400 -35 817 89 1124 19 47 32
87 30 89 -7 7 -54 -84 -88 -169 -40 -100 -93 -301 -107 -409 -24 -186 -6 -521
39 -727 18 -83 18 -84 -2 -94 -22 -12 -75 -14 -106 -4 -30 9 -26 -4 18 -66 55
-77 121 -122 187 -127 67 -6 95 1 134 34 72 61 137 272 160 518 20 206 -33
687 -95 871 -69 206 -90 232 -124 153z m88 -897 c0 -52 -4 -135 -11 -185 -11
-88 -12 -90 -21 -51 -9 40 -4 199 10 325 6 54 8 60 14 35 4 -16 7 -72 8 -124z"/>
<path d="M7101 4632 c-13 -32 -44 -93 -69 -137 -24 -44 -44 -93 -44 -108 1
-28 17 -57 32 -57 8 0 115 349 109 355 -2 2 -15 -22 -28 -53z"/>
<path d="M1612 5795 c-6 -13 -19 -64 -29 -112 -20 -101 -25 -503 -8 -608 8
-49 11 2 16 265 5 250 10 342 23 399 17 78 17 97 -2 56z"/>
<path d="M4940 3999 c-344 -15 -730 -69 -730 -101 0 -12 38 -10 215 13 194 25
478 36 720 28 153 -5 182 -3 193 10 16 19 15 26 -4 45 -17 18 -89 19 -394 5z"/>
</g>
</svg>
