<svg xmlns="http://www.w3.org/2000/svg" xmlns:xlink="http://www.w3.org/1999/xlink" width="1024" zoomAndPan="magnify" viewBox="0 0 768 767.999994" height="1024" preserveAspectRatio="xMidYMid meet" version="1.0"><defs><clipPath id="1ee9e5c579"><path d="M 323 296 L 635 296 L 635 597 L 323 597 Z M 323 296 " clip-rule="nonzero"/></clipPath><clipPath id="1929502c51"><path d="M 343.066406 263.878906 L 659.171875 331.070312 L 590.097656 656.042969 L 273.988281 588.851562 Z M 343.066406 263.878906 " clip-rule="nonzero"/></clipPath><clipPath id="ceb1e5737a"><path d="M 343.066406 263.878906 L 659.171875 331.070312 L 590.097656 656.042969 L 273.988281 588.851562 Z M 343.066406 263.878906 " clip-rule="nonzero"/></clipPath><clipPath id="08826058ee"><path d="M 391 363 L 544 363 L 544 510 L 391 510 Z M 391 363 " clip-rule="nonzero"/></clipPath><clipPath id="97c8d5bda6"><path d="M 401.132812 347.375 L 554.753906 380.027344 L 520.84375 539.558594 L 367.222656 506.902344 Z M 401.132812 347.375 " clip-rule="nonzero"/></clipPath><clipPath id="a167481320"><path d="M 401.132812 347.375 L 554.753906 380.027344 L 520.84375 539.558594 L 367.222656 506.902344 Z M 401.132812 347.375 " clip-rule="nonzero"/></clipPath><clipPath id="c59ec1a522"><path d="M 430 28 L 742 28 L 742 329 L 430 329 Z M 430 28 " clip-rule="nonzero"/></clipPath><clipPath id="604c0d41b8"><path d="M 449.96875 -4 L 766.074219 63.191406 L 697 388.160156 L 380.890625 320.972656 Z M 449.96875 -4 " clip-rule="nonzero"/></clipPath><clipPath id="2d206ca7ff"><path d="M 449.96875 -4 L 766.074219 63.191406 L 697 388.160156 L 380.890625 320.972656 Z M 449.96875 -4 " clip-rule="nonzero"/></clipPath><clipPath id="bcf4325a94"><path d="M 498 95 L 651 95 L 651 242 L 498 242 Z M 498 95 " clip-rule="nonzero"/></clipPath><clipPath id="82711d5cfc"><path d="M 508.035156 79.492188 L 661.65625 112.148438 L 627.746094 271.679688 L 474.125 239.023438 Z M 508.035156 79.492188 " clip-rule="nonzero"/></clipPath><clipPath id="1a12f0bcb5"><path d="M 508.035156 79.492188 L 661.65625 112.148438 L 627.746094 271.679688 L 474.125 239.023438 Z M 508.035156 79.492188 " clip-rule="nonzero"/></clipPath><clipPath id="6505ad02f8"><path d="M 46 340 L 358 340 L 358 642 L 46 642 Z M 46 340 " clip-rule="nonzero"/></clipPath><clipPath id="24531b7ce0"><path d="M 65.96875 308.574219 L 382.074219 375.765625 L 313 700.734375 L -3.109375 633.542969 Z M 65.96875 308.574219 " clip-rule="nonzero"/></clipPath><clipPath id="89fee17691"><path d="M 65.96875 308.574219 L 382.074219 375.765625 L 313 700.734375 L -3.109375 633.542969 Z M 65.96875 308.574219 " clip-rule="nonzero"/></clipPath><clipPath id="5380ab9963"><path d="M 114 407 L 267 407 L 267 555 L 114 555 Z M 114 407 " clip-rule="nonzero"/></clipPath><clipPath id="0fc6e2afad"><path d="M 124.035156 392.066406 L 277.65625 424.71875 L 243.75 584.25 L 90.125 551.597656 Z M 124.035156 392.066406 " clip-rule="nonzero"/></clipPath><clipPath id="d72e5094fb"><path d="M 124.035156 392.066406 L 277.65625 424.71875 L 243.75 584.25 L 90.125 551.597656 Z M 124.035156 392.066406 " clip-rule="nonzero"/></clipPath><clipPath id="2bb95a4253"><rect x="0" width="758" y="0" height="693"/></clipPath></defs><rect x="-76.8" width="921.6" fill="#ffffff" y="-76.799999" height="921.599993" fill-opacity="1"/><rect x="-76.8" width="921.6" fill="#ffffff" y="-76.799999" height="921.599993" fill-opacity="1"/><g transform="matrix(1, 0, 0, 1, 3, 36)"><g clip-path="url(#2bb95a4253)"><g clip-path="url(#1ee9e5c579)"><g clip-path="url(#1929502c51)"><g clip-path="url(#ceb1e5737a)"><path fill="#000000" d="M 518.675781 473.367188 C 528.773438 509.0625 539.171875 544.5625 549.320312 580.007812 C 552.574219 591.621094 539.457031 599.496094 529.371094 591.890625 C 500.394531 570.386719 473.742188 546.519531 448.398438 521.367188 C 417.59375 543.945312 388.070312 567.835938 359.628906 592.738281 C 347.125 603.863281 326.628906 586.503906 339.132812 575.378906 C 346.722656 554.367188 357.542969 534.042969 367.015625 513.949219 C 375.160156 496.4375 383.5 479.226562 391.890625 461.765625 C 369.640625 436.75 347.800781 411.042969 325.65625 385.53125 C 320.046875 378.875 326.175781 367.175781 335.203125 367.535156 C 366.863281 369.0625 398.171875 371.035156 429.730469 373.0625 C 440.832031 350.195312 451.4375 327.226562 459.851562 303.527344 C 462.648438 295.28125 476.800781 292.308594 480.015625 302.871094 C 487.253906 327.554688 493.085938 352.722656 498.121094 377.976562 C 539.097656 380.964844 580.019531 384.203125 620.886719 387.6875 C 632.152344 388.523438 641.203125 403.449219 628.902344 409.9375 C 591 429.1875 554.222656 450.496094 518.675781 473.367188 Z M 518.675781 473.367188 " fill-opacity="1" fill-rule="nonzero"/></g></g></g><g clip-path="url(#08826058ee)"><g clip-path="url(#97c8d5bda6)"><g clip-path="url(#a167481320)"><path fill="#ffde59" d="M 486.929688 449.71875 C 491.863281 467.15625 496.945312 484.5 501.902344 501.816406 C 503.492188 507.492188 497.082031 511.339844 492.15625 507.621094 C 478 497.117188 464.976562 485.457031 452.597656 473.167969 C 437.546875 484.199219 423.121094 495.871094 409.230469 508.039062 C 403.117188 513.472656 393.105469 504.992188 399.214844 499.558594 C 402.921875 489.289062 408.210938 479.359375 412.835938 469.546875 C 416.816406 460.988281 420.890625 452.578125 424.988281 444.050781 C 414.121094 431.828125 403.449219 419.269531 392.628906 406.804688 C 389.890625 403.554688 392.886719 397.839844 397.292969 398.015625 C 412.761719 398.761719 428.058594 399.726562 443.476562 400.714844 C 448.898438 389.542969 454.082031 378.320312 458.191406 366.742188 C 459.558594 362.714844 466.472656 361.261719 468.042969 366.421875 C 471.578125 378.484375 474.429688 390.777344 476.886719 403.117188 C 496.90625 404.574219 516.898438 406.15625 536.867188 407.859375 C 542.371094 408.269531 546.789062 415.558594 540.78125 418.730469 C 522.265625 428.136719 504.296875 438.546875 486.929688 449.71875 Z M 486.929688 449.71875 " fill-opacity="1" fill-rule="nonzero"/></g></g></g><g clip-path="url(#c59ec1a522)"><g clip-path="url(#604c0d41b8)"><g clip-path="url(#2d206ca7ff)"><path fill="#000000" d="M 625.578125 205.488281 C 635.675781 241.183594 646.074219 276.683594 656.222656 312.128906 C 659.476562 323.742188 646.359375 331.617188 636.273438 324.011719 C 607.296875 302.507812 580.644531 278.636719 555.300781 253.488281 C 524.496094 276.066406 494.972656 299.957031 466.53125 324.859375 C 454.027344 335.984375 433.53125 318.625 446.035156 307.5 C 453.625 286.488281 464.445312 266.164062 473.917969 246.070312 C 482.0625 228.558594 490.402344 211.34375 498.792969 193.882812 C 476.542969 168.871094 454.703125 143.164062 432.558594 117.648438 C 426.949219 110.996094 433.078125 99.296875 442.105469 99.65625 C 473.765625 101.183594 505.074219 103.15625 536.632812 105.183594 C 547.734375 82.316406 558.339844 59.34375 566.757812 35.648438 C 569.550781 27.398438 583.703125 24.425781 586.921875 34.992188 C 594.15625 59.675781 599.988281 84.84375 605.023438 110.097656 C 646 113.085938 686.921875 116.324219 727.789062 119.808594 C 739.054688 120.644531 748.105469 135.570312 735.804688 142.058594 C 697.90625 161.308594 661.128906 182.617188 625.578125 205.488281 Z M 625.578125 205.488281 " fill-opacity="1" fill-rule="nonzero"/></g></g></g><g clip-path="url(#bcf4325a94)"><g clip-path="url(#82711d5cfc)"><g clip-path="url(#1a12f0bcb5)"><path fill="#ffde59" d="M 593.832031 181.839844 C 598.765625 199.277344 603.847656 216.621094 608.804688 233.9375 C 610.394531 239.613281 603.984375 243.457031 599.058594 239.742188 C 584.902344 229.238281 571.878906 217.578125 559.5 205.289062 C 544.449219 216.320312 530.023438 227.992188 516.132812 240.15625 C 510.019531 245.59375 500.007812 237.113281 506.117188 231.675781 C 509.824219 221.410156 515.113281 211.480469 519.738281 201.664062 C 523.71875 193.109375 527.792969 184.699219 531.890625 176.171875 C 521.023438 163.949219 510.351562 151.390625 499.53125 138.925781 C 496.792969 135.675781 499.789062 129.960938 504.195312 130.132812 C 519.664062 130.882812 534.960938 131.84375 550.378906 132.835938 C 555.800781 121.664062 560.984375 110.441406 565.09375 98.863281 C 566.460938 94.835938 573.375 93.382812 574.945312 98.542969 C 578.480469 110.601562 581.332031 122.898438 583.792969 135.238281 C 603.808594 136.695312 623.800781 138.277344 643.769531 139.980469 C 649.273438 140.386719 653.691406 147.679688 647.683594 150.851562 C 629.167969 160.253906 611.199219 170.664062 593.832031 181.839844 Z M 593.832031 181.839844 " fill-opacity="1" fill-rule="nonzero"/></g></g></g><g clip-path="url(#6505ad02f8)"><g clip-path="url(#24531b7ce0)"><g clip-path="url(#89fee17691)"><path fill="#000000" d="M 241.578125 518.0625 C 251.675781 553.757812 262.074219 589.253906 272.222656 624.699219 C 275.476562 636.316406 262.359375 644.1875 252.273438 636.582031 C 223.296875 615.082031 196.644531 591.210938 171.300781 566.058594 C 140.496094 588.640625 110.972656 612.53125 82.53125 637.433594 C 70.027344 648.558594 49.53125 631.199219 62.035156 620.074219 C 69.625 599.0625 80.445312 578.734375 89.917969 558.644531 C 98.0625 541.128906 106.402344 523.917969 114.792969 506.457031 C 92.542969 481.441406 70.703125 455.734375 48.558594 430.222656 C 42.949219 423.570312 49.078125 411.871094 58.105469 412.226562 C 89.765625 413.757812 121.074219 415.730469 152.632812 417.757812 C 163.734375 394.890625 174.339844 371.917969 182.757812 348.222656 C 185.550781 339.972656 199.703125 337 202.921875 347.566406 C 210.15625 372.25 215.988281 397.414062 221.023438 422.671875 C 262 425.660156 302.921875 428.894531 343.789062 432.382812 C 355.054688 433.214844 364.105469 448.144531 351.804688 454.628906 C 313.90625 473.882812 277.128906 495.191406 241.578125 518.0625 Z M 241.578125 518.0625 " fill-opacity="1" fill-rule="nonzero"/></g></g></g><g clip-path="url(#5380ab9963)"><g clip-path="url(#0fc6e2afad)"><g clip-path="url(#d72e5094fb)"><path fill="#ffde59" d="M 209.832031 494.414062 C 214.765625 511.851562 219.847656 529.195312 224.804688 546.511719 C 226.394531 552.183594 219.984375 556.03125 215.058594 552.316406 C 200.902344 541.8125 187.878906 530.148438 175.5 517.863281 C 160.449219 528.890625 146.023438 540.566406 132.132812 552.730469 C 126.019531 558.164062 116.007812 549.683594 122.117188 544.25 C 125.824219 533.984375 131.113281 524.054688 135.738281 514.238281 C 139.71875 505.683594 143.792969 497.273438 147.890625 488.742188 C 137.023438 476.523438 126.351562 463.960938 115.53125 451.5 C 112.792969 448.25 115.789062 442.53125 120.195312 442.707031 C 135.664062 443.453125 150.960938 444.417969 166.378906 445.410156 C 171.800781 434.238281 176.984375 423.015625 181.09375 411.4375 C 182.460938 407.40625 189.375 405.953125 190.945312 411.117188 C 194.480469 423.175781 197.332031 435.472656 199.792969 447.808594 C 219.808594 449.269531 239.800781 450.851562 259.769531 452.554688 C 265.273438 452.960938 269.695312 460.253906 263.683594 463.421875 C 245.167969 472.828125 227.199219 483.238281 209.832031 494.414062 Z M 209.832031 494.414062 " fill-opacity="1" fill-rule="nonzero"/></g></g></g></g></g></svg>